# xmcd
#
# Track frame offsets:
#	150
#	12495
#	27537
#	43572
#	59887
#	79546
#	98019
#	116376
#
# Disc length: 1842 seconds
#
# Revision: 1
# Processed by: cddbd v1.5.2PL0 Copyright (c) Steve Scherf et al.
# Submitted via: audiograbber 1.83.01
#
DISCID=61073008
DTITLE=Jason Crabb - Favorites
DYEAR=1900
DGENRE=country gospel
TTITLE0=The Lamb, The Lion, and The King
TTITLE1=Please Forgive Me
TTITLE2=That's No Mountain
TTITLE3=Through The Fire
TTITLE4=Still Holdin' On
TTITLE5=I Sure Miss You
TTITLE6=Please Come Down To Me
TTITLE7=The Reason That I'm Standing
EXTD=
EXTT0=
EXTT1=
EXTT2=
EXTT3=
EXTT4=
EXTT5=
EXTT6=
EXTT7=
PLAYORDER=
